<svg width="16" height="16" viewBox="0 0 16 16" fill="none" xmlns="http://www.w3.org/2000/svg">
<path d="M9.2 4H6.8C5.94342 4 5.36113 4.00078 4.91104 4.03755C4.47262 4.07337 4.24842 4.1383 4.09202 4.21799C3.71569 4.40973 3.40973 4.71569 3.21799 5.09202C3.1383 5.24842 3.07337 5.47262 3.03755 5.91104C3.00078 6.36113 3 6.94342 3 7.8V8.2C3 9.05658 3.00078 9.63887 3.03755 10.089C3.07337 10.5274 3.1383 10.7516 3.21799 10.908C3.40973 11.2843 3.71569 11.5903 4.09202 11.782C4.24842 11.8617 4.47262 11.9266 4.91104 11.9624C5.36113 11.9992 5.94342 12 6.8 12H9.2C10.0566 12 10.6389 11.9992 11.089 11.9624C11.5274 11.9266 11.7516 11.8617 11.908 11.782C12.2843 11.5903 12.5903 11.2843 12.782 10.908C12.8617 10.7516 12.9266 10.5274 12.9624 10.089C12.9992 9.63887 13 9.05658 13 8.2V7.8H14V8.2C14 9.88016 14 10.7202 13.673 11.362C13.3854 11.9265 12.9265 12.3854 12.362 12.673C11.7202 13 10.8802 13 9.2 13H6.8C5.11984 13 4.27976 13 3.63803 12.673C3.07354 12.3854 2.6146 11.9265 2.32698 11.362C2 10.7202 2 9.88016 2 8.2V7.8C2 6.11984 2 5.27976 2.32698 4.63803C2.6146 4.07354 3.07354 3.6146 3.63803 3.32698C4.27976 3 5.11984 3 6.8 3H9.2V4Z" stroke="none" />
<path  d="M10.1464 6.14644L13.2929 2.99999L11 2.99999L11 1.99999L15 1.99999L15 5.99999L14 5.99999L14 3.7071L10.8536 6.85355L10.1464 6.14644Z" stroke="none" />
</svg>
