<svg version="1.1"
	 xmlns="http://www.w3.org/2000/svg" xmlns:xlink="http://www.w3.org/1999/xlink" xmlns:a="http://ns.adobe.com/AdobeSVGViewerExtensions/3.0/"
	 x="0px" y="0px" width="16px" height="16px" viewBox="0 0 16 16" style="enable-background:new 0 0 16 16;" xml:space="preserve">
<g>
	<g>
		<path d="M5,3v3H2v7h10v-3h3V3H5z M5,12H3v-2h2V12z M5,9H3V7h2V9z M8,12H6v-2h2V12z M8,9H6V7h2V9z M8,6H6V4h2V6z M11,12H9v-2h2V12z
			 M11,9H9V7h2V9z M11,6H9V4h2V6z M14,9h-2V7h2V9z M14,6h-2V4h2V6z" stroke="none"/>
	</g>
</g>
</svg>