<!-- Generator: Adobe Illustrator 21.0.0, SVG Export Plug-In  -->
<svg version="1.1"
	 xmlns="http://www.w3.org/2000/svg" xmlns:xlink="http://www.w3.org/1999/xlink" xmlns:a="http://ns.adobe.com/AdobeSVGViewerExtensions/3.0/"
	 x="0px" y="0px" width="16px" height="16px" viewBox="0 0 16 16" style="enable-background:new 0 0 16 16;" xml:space="preserve">
<style type="text/css">
	.st0{fill-rule:evenodd;clip-rule:evenodd;fill:none;}
	.st1{fill:none;}
</style>
<defs>
</defs>
<g>
	<path class="st1" d="M8,4.5C3.7,4.5,1,5.9,1,8s2.7,3.5,7,3.5s7-1.4,7-3.5S12.3,4.5,8,4.5z" stroke="none" />
	<path d="M8,3.5C3.1,3.5,0,5.2,0,8c0,1.5,0.9,2.7,2.5,3.5V15l3.4-2.6c0.7,0.1,1.4,0.1,2.1,0.1c4.9,0,8-1.7,8-4.5S12.9,3.5,8,3.5z
		 M8,11.5c-4.3,0-7-1.4-7-3.5s2.7-3.5,7-3.5s7,1.4,7,3.5S12.3,11.5,8,11.5z" stroke="none" />
</g>
</svg>