<!-- Generator: Adobe Illustrator 21.0.0, SVG Export Plug-In  -->
<svg version="1.1"
	 xmlns="http://www.w3.org/2000/svg" xmlns:xlink="http://www.w3.org/1999/xlink" xmlns:a="http://ns.adobe.com/AdobeSVGViewerExtensions/3.0/"
	 x="0px" y="0px" width="16px" height="16px" viewBox="0 0 16 16" style="enable-background:new 0 0 16 16;" xml:space="preserve">
<style type="text/css">
	.st0{fill-rule:evenodd;clip-rule:evenodd;fill:none;}
</style>
<defs>
</defs>
<g>
	<path d="M8,15c-0.3,0-0.6-0.1-0.8-0.2l-4.4-2.6c-0.5-0.3-0.8-0.9-0.8-1.5V5.6c0-0.6,0.3-1.2,0.8-1.5l4.4-2.6c0.5-0.3,1.2-0.3,1.7,0
		l4.4,2.6c0.5,0.3,0.9,0.9,0.9,1.5v5.1c0,0.6-0.3,1.2-0.9,1.5l-4.4,2.6C8.6,15,8.3,15,8,15z M8,2.4c-0.1,0-0.2,0-0.3,0.1L3.2,5
		C3,5.2,2.9,5.4,2.9,5.6v5.1c0,0.2,0.1,0.5,0.3,0.6l4.4,2.6c0.2,0.1,0.5,0.1,0.7,0l4.4-2.6c0.2-0.1,0.4-0.4,0.4-0.6V5.6
		c0-0.2-0.1-0.5-0.4-0.6L8.4,2.5C8.2,2.4,8.1,2.4,8,2.4z" stroke="none"/>
</g>
<path d="M8,4.2c-0.5,0-0.9,0.3-0.9,0.7S7.5,5.5,8,5.5s0.9-0.3,0.9-0.7S8.5,4.2,8,4.2z" stroke="none" />
<path d="M11.3,8.5c0.4,0,0.7-0.4,0.7-0.9s-0.3-0.9-0.7-0.9s-0.7,0.4-0.7,0.9S11,8.5,11.3,8.5z" stroke="none" />
<path d="M9.8,11.9c0.4,0,0.7-0.4,0.7-0.9S10.2,10,9.8,10S9.1,10.4,9.1,11S9.5,11.9,9.8,11.9z" stroke="none" />
<path d="M5,7.2c0-0.5-0.3-0.9-0.7-0.9S3.6,6.7,3.6,7.2S3.9,8,4.3,8S5,7.6,5,7.2z" stroke="none" />
<path d="M5,10.2c0-0.5-0.3-0.9-0.7-0.9s-0.7,0.4-0.7,0.9S3.9,11,4.3,11S5,10.6,5,10.2z" stroke="none" />
<path d="M7.3,8.4c0-0.5-0.3-0.9-0.7-0.9S6,7.9,6,8.4s0.3,0.9,0.7,0.9S7.3,8.9,7.3,8.4z" stroke="none" />
<path d="M7.3,11.4c0-0.5-0.3-0.9-0.7-0.9S6,10.9,6,11.4s0.3,0.9,0.7,0.9S7.3,11.9,7.3,11.4z" stroke="none" />
</svg>