<svg viewBox="0 0 8 12" fill="none" xmlns="http://www.w3.org/2000/svg">
<path fill-rule="evenodd" stroke="none" clip-rule="evenodd" d="M4 6C3.44772 6 3 6.44772 3 7V9C3 9.55229 3.44772 10 4 10C4.55228 10 5 9.55229 5 9V7C5 6.44772 4.55228 6 4 6Z" />
<path fill-rule="evenodd" stroke="none" clip-rule="evenodd" d="M7.41421 4.58579C7.29312 4.4647 7.15678 4.36864 7 4.29243V3C7 1.34315 5.65685 0 4 0C2.34315 0 1 1.34315 1 3V4.29243C0.843223 4.36864 0.706877 4.4647 0.585786 4.58579C0 5.17157 0 6.11438 0 8C0 9.88562 0 10.8284 0.585786 11.4142C1.17157 12 2.11438 12 4 12C5.88562 12 6.82843 12 7.41421 11.4142C8 10.8284 8 9.88562 8 8C8 6.11438 8 5.17157 7.41421 4.58579ZM6 3V4.05075C5.48409 4 4.83434 4 4 4C3.16566 4 2.51591 4 2 4.05075V3C2 1.89543 2.89543 1 4 1C5.10457 1 6 1.89543 6 3ZM1.9387 10.9357C2.40121 10.9979 3.02892 11 4 11C4.97108 11 5.59879 10.9979 6.0613 10.9357C6.49504 10.8774 6.63098 10.7832 6.70711 10.7071C6.78323 10.631 6.87738 10.495 6.93569 10.0613C6.99788 9.59879 7 8.97108 7 8C7 7.02892 6.99788 6.40121 6.93569 5.9387C6.87738 5.50496 6.78323 5.36902 6.70711 5.29289C6.63098 5.21677 6.49504 5.12262 6.0613 5.06431C5.59879 5.00212 4.97108 5 4 5C3.02892 5 2.40121 5.00212 1.9387 5.06431C1.50496 5.12262 1.36902 5.21677 1.29289 5.29289C1.21677 5.36902 1.12262 5.50496 1.06431 5.9387C1.00212 6.40121 1 7.02892 1 8C1 8.97108 1.00212 9.59879 1.06431 10.0613C1.12262 10.495 1.21677 10.631 1.29289 10.7071C1.36902 10.7832 1.50496 10.8774 1.9387 10.9357Z" />
</svg>