<svg width="16" height="16" viewBox="0 0 16 16" fill="none" xmlns="http://www.w3.org/2000/svg">
<path d="M15.213 13.799L11.208 9.794C11.862 8.861 12.249 7.726 12.249 6.5C12.249 3.324 9.67502 0.75 6.49902 0.75C3.32302 0.75 0.749023 3.324 0.749023 6.5C0.749023 9.676 3.32402 12.25 6.49902 12.25C7.72502 12.25 8.86002 11.863 9.79302 11.209L13.798 15.214L15.213 13.799ZM2.25002 6.501C2.25002 4.153 4.15402 2.25 6.50002 2.25C8.84602 2.25 10.75 4.153 10.75 6.501C10.75 8.848 8.84702 10.75 6.50002 10.75C4.15302 10.75 2.25002 8.848 2.25002 6.501Z" stroke="none" />
</svg>
