<svg width="16" height="16" viewBox="0 0 16 16" fill="none" xmlns="http://www.w3.org/2000/svg">
<path d="M6.00596 1.83C6.00566 1.83 6.00537 1.83 6.00508 1.83C3.14668 1.83 0.830078 4.1466 0.830078 7.005C0.830078 9.8634 3.14758 12.18 6.00508 12.18C7.10848 12.18 8.12998 11.8317 8.96968 11.2431L12.5742 14.8476L13.8477 13.5741L10.2432 9.9696C10.8318 9.1299 11.1801 8.1084 11.1801 7.005L9.50976 7.005C9.50976 7.00694 9.50977 7.00888 9.50977 7.01082C9.50977 8.94364 7.94259 10.51 6.00977 10.51C4.07694 10.51 2.50977 8.94364 2.50977 7.01082C2.50977 5.07844 4.07571 3.51205 6.00596 3.51V1.83Z" stroke="none" />
<path d="M5.49414 6.47437L9.66384 2.28503L7.98154 2.28503L7.98154 0.785034L12.2138 0.785035V5.03503H10.7201V3.34569L6.55038 7.53503L5.49414 6.47437Z" stroke="none" />
</svg>
