<svg xmlns="http://www.w3.org/2000/svg" viewBox="0 0 24 24">
<path stroke="none" d="M11.994,11.891c1.645,0,3.131-0.674,4.202-1.744S17.94,7.59,17.94,5.945s-0.674-3.131-1.744-4.201
	S13.639,0,11.994,0c-1.645,0-3.131,0.674-4.201,1.744S6.049,4.301,6.049,5.945s0.674,3.131,1.744,4.201S10.369,11.891,11.994,11.891
	z M10.092,4.023c0.495-0.495,1.169-0.793,1.903-0.793c0.753,0,1.427,0.297,1.903,0.793c0.495,0.495,0.793,1.169,0.793,1.903
	c0,0.753-0.297,1.427-0.793,1.903c-0.495,0.495-1.169,0.793-1.903,0.793c-0.753,0-1.427-0.297-1.903-0.793
	C9.596,7.333,9.299,6.659,9.299,5.926S9.616,4.519,10.092,4.023z"/>
<path stroke="none" d="M20.001,14.289l-1.744-2.378c-0.099-0.139-0.297-0.159-0.416-0.04c-1.645,1.407-3.666,2.319-5.846,2.319
	s-4.201-0.912-5.846-2.319c-0.119-0.099-0.317-0.079-0.416,0.04l-1.744,2.378c-0.079,0.119-0.059,0.277,0.04,0.377
	c1.467,1.189,3.171,2.002,4.955,2.418l-3.686,6.5C5.196,23.762,5.335,24,5.533,24H9.14c0.119,0,0.218-0.059,0.258-0.178l2.576-5.747
	l2.576,5.747C14.59,23.921,14.689,24,14.808,24h3.607c0.218,0,0.337-0.218,0.238-0.416l-3.686-6.5
	c1.784-0.416,3.488-1.209,4.955-2.418C20.08,14.566,20.1,14.408,20.001,14.289z"/>
</svg>
