<svg width="16" height="16" fill="none" xmlns="http://www.w3.org/2000/svg"><path d="M9.2 4H6.8c-.857 0-1.439 0-1.889.038-.438.035-.663.1-.819.18a2 2 0 00-.874.874c-.08.156-.145.38-.18.819C3 6.361 3 6.943 3 7.8v.4c0 .857 0 1.439.038 1.889.035.438.1.663.18.819a2 2 0 00.874.874c.156.08.38.145.819.18C5.361 12 5.943 12 6.8 12h2.4c.857 0 1.439 0 1.889-.038.438-.035.663-.1.819-.18a2 2 0 00.874-.874c.08-.156.145-.38.18-.819C13 9.639 13 9.057 13 8.2v-.4h1v.4c0 1.68 0 2.52-.327 3.162a3 3 0 01-1.311 1.311C11.72 13 10.88 13 9.2 13H6.8c-1.68 0-2.52 0-3.162-.327a3 3 0 01-1.311-1.311C2 10.72 2 9.88 2 8.2v-.4c0-1.68 0-2.52.327-3.162a3 3 0 011.311-1.311C4.28 3 5.12 3 6.8 3h2.4v1z" stroke="none"/><path d="M10.146 6.146L13.293 3H11V2h4v4h-1V3.707l-3.146 3.147-.708-.708z" stroke="none"/></svg>