<svg version="1.1" xmlns="http://www.w3.org/2000/svg" x="0" y="0" width="16" height="16" style="enable-background:new 0 0 16 16" xml:space="preserve"><style type="text/css">.st0{fill-rule:evenodd;clip-rule:evenodd;fill:none}</style><path d="M8 4.5C3.7 4.5 1 5.9 1 8s2.7 3.5 7 3.5 7-1.4 7-3.5-2.7-3.5-7-3.5z" stroke="none" style="fill:none"/><path d="M8 3.5C3.1 3.5 0 5.2 0 8c0 1.5.9 2.7 2.5 3.5V15l3.4-2.6c.7.1 1.4.1 2.1.1 4.9 0 8-1.7 8-4.5s-3.1-4.5-8-4.5zm0 8c-4.3 0-7-1.4-7-3.5s2.7-3.5 7-3.5 7 1.4 7 3.5-2.7 3.5-7 3.5z" stroke="none"/></svg>