<svg xmlns="http://www.w3.org/2000/svg" width="16" height="16"><style type="text/css"></style><path d="M8 15c-.3 0-.6-.1-.8-.2l-4.4-2.6c-.5-.3-.8-.9-.8-1.5V5.6c0-.6.3-1.2.8-1.5l4.4-2.6c.5-.3 1.2-.3 1.7 0l4.4 2.6c.5.3.9.9.9 1.5v5.1c0 .6-.3 1.2-.9 1.5l-4.4 2.6c-.3.2-.6.2-.9.2zM8 2.4c-.1 0-.2 0-.3.1L3.2 5c-.2.2-.3.4-.3.6v5.1c0 .2.1.5.3.6l4.4 2.6c.2.1.5.1.7 0l4.4-2.6c.2-.1.4-.4.4-.6V5.6c0-.2-.1-.5-.4-.6L8.4 2.5c-.2-.1-.3-.1-.4-.1z" stroke="none"/><path d="M8 4.2c-.5 0-.9.3-.9.7s.4.6.9.6.9-.3.9-.7-.4-.6-.9-.6zM11.3 8.5c.4 0 .7-.4.7-.9s-.3-.9-.7-.9-.7.4-.7.9.4.9.7.9zM9.8 11.9c.4 0 .7-.4.7-.9s-.3-1-.7-1-.7.4-.7 1 .4.9.7.9zM5 7.2c0-.5-.3-.9-.7-.9s-.7.4-.7.9.3.8.7.8.7-.4.7-.8zM5 10.2c0-.5-.3-.9-.7-.9s-.7.4-.7.9.3.8.7.8.7-.4.7-.8zM7.3 8.4c0-.5-.3-.9-.7-.9s-.6.4-.6.9.3.9.7.9.6-.4.6-.9zM7.3 11.4c0-.5-.3-.9-.7-.9s-.6.4-.6.9.3.9.7.9.6-.4.6-.9z" stroke="none"/></svg>