<svg viewBox="0 0 8 12" fill="none" xmlns="http://www.w3.org/2000/svg"><path fill-rule="evenodd" stroke="none" clip-rule="evenodd" d="M4 6a1 1 0 00-1 1v2a1 1 0 102 0V7a1 1 0 00-1-1z"/><path fill-rule="evenodd" stroke="none" clip-rule="evenodd" d="M7.414 4.586A1.51 1.51 0 007 4.292V3a3 3 0 00-6 0v1.292a1.51 1.51 0 00-.414.294C0 5.172 0 6.114 0 8c0 1.886 0 2.828.586 3.414C1.172 12 2.114 12 4 12c1.886 0 2.828 0 3.414-.586C8 10.828 8 9.886 8 8c0-1.886 0-2.828-.586-3.414zM6 3v1.05C5.484 4 4.834 4 4 4c-.834 0-1.484 0-2 .05V3a2 2 0 114 0zm-4.061 7.936C2.4 10.998 3.029 11 4 11c.971 0 1.599-.002 2.061-.064.434-.059.57-.153.646-.229.076-.076.17-.212.229-.646C6.998 9.6 7 8.971 7 8c0-.971-.002-1.599-.064-2.061-.059-.434-.153-.57-.229-.646-.076-.076-.212-.17-.646-.229C5.6 5.002 4.971 5 4 5c-.971 0-1.599.002-2.061.064-.434.059-.57.153-.646.229-.076.076-.17.212-.229.646C1.002 6.4 1 7.029 1 8c0 .971.002 1.599.064 2.061.059.434.153.57.229.646.076.076.212.17.646.229z"/></svg>