<svg xmlns="http://www.w3.org/2000/svg" viewBox="0 0 24 24"><path stroke="none" d="M11.994 11.891c1.645 0 3.131-.674 4.202-1.744S17.94 7.59 17.94 5.945s-.674-3.131-1.744-4.201a5.933 5.933 0 0 0-8.403 0 5.932 5.932 0 0 0 0 8.402 5.967 5.967 0 0 0 4.201 1.745zm-1.902-7.868a2.684 2.684 0 0 1 1.903-.793c.753 0 1.427.297 1.903.793.495.495.793 1.169.793 1.903 0 .753-.297 1.427-.793 1.903a2.684 2.684 0 0 1-1.903.793 2.615 2.615 0 0 1-1.903-.793c-.496-.496-.793-1.17-.793-1.903s.317-1.407.793-1.903z"/><path stroke="none" d="m20.001 14.289-1.744-2.378a.274.274 0 0 0-.416-.04c-1.645 1.407-3.666 2.319-5.846 2.319s-4.201-.912-5.846-2.319a.307.307 0 0 0-.416.04l-1.744 2.378a.301.301 0 0 0 .04.377 12.31 12.31 0 0 0 4.955 2.418l-3.686 6.5c-.102.178.037.416.235.416H9.14c.119 0 .218-.059.258-.178l2.576-5.747 2.576 5.747c.04.099.139.178.258.178h3.607c.218 0 .337-.218.238-.416l-3.686-6.5c1.784-.416 3.488-1.209 4.955-2.418.158-.1.178-.258.079-.377z"/></svg>