<svg xmlns="http://www.w3.org/2000/svg" viewBox="0 0 16 16"><path stroke="none" d="M8 6.107a1.607 1.607 0 1 0 0-3.214 1.607 1.607 0 0 0 0 3.214zM13 0H3C1 0 0 1 0 3v10c0 2 1 3 3 3h10c2 0 3-1 3-3V3c0-2-1-3-3-3zM8 .75c2.07 0 3.75 1.68 3.75 3.75 0 2.07-1.68 3.75-3.75 3.75S4.25 6.57 4.25 4.5C4.25 2.43 5.93.75 8 .75zm3.826 12.634a1.068 1.068 0 0 1-.758 1.828c-.274 0-.548-.105-.758-.314L8 12.59 5.69 14.9a1.073 1.073 0 0 1-1.516-1.516L6.357 11.2a8.687 8.687 0 0 1-2.337-1.11 1.07 1.07 0 0 1 1.282-1.716c.03.022 1.4.946 2.698.946 1.31 0 2.682-.934 2.693-.943a1.07 1.07 0 1 1 1.286 1.713 8.79 8.79 0 0 1-2.338 1.11l2.184 2.184z"/></svg>