<svg version="1.1" xmlns="http://www.w3.org/2000/svg" x="0" y="0" viewBox="0 0 16 16" xml:space="preserve"><path stroke="none" fill-rule="evenodd" clip-rule="evenodd" d="M8.018 1.747a6.248 6.248 0 0 0-6.249 6.25 6.25 6.25 0 1 0 6.249-6.25zm0 11a4.75 4.75 0 0 1-4.75-4.75 4.75 4.75 0 1 1 4.75 4.75z"/><g stroke="none" fill-rule="evenodd" clip-rule="evenodd"><path d="m2.098 13.285 1.75-.839L2.63 10.86l-1.263 1.474zM14.632 3.667l-.73-.952-1.751.84 1.217 1.586z"/></g><g stroke="none" fill-rule="evenodd" clip-rule="evenodd"><path d="m.246 9.626 1.935.149-.261-1.983-1.831.645zM15.91 7.564l-.156-1.19-1.937-.148.261 1.983z"/></g><g stroke="none" fill-rule="evenodd" clip-rule="evenodd"><path d="m.472 5.532 1.601 1.096.766-1.848L.93 4.423zM15.068 11.578l.46-1.109-1.603-1.097-.765 1.848z"/></g><g stroke="none" fill-rule="evenodd" clip-rule="evenodd"><path d="m2.715 2.098.839 1.75L5.14 2.631 3.666 1.367zM12.333 14.633l.952-.73-.84-1.752-1.586 1.218z"/></g><g stroke="none" fill-rule="evenodd" clip-rule="evenodd"><path d="m6.374.247-.149 1.935 1.983-.261L7.563.089zM8.436 15.91l1.19-.155.148-1.937-1.983.261z"/></g><g stroke="none" fill-rule="evenodd" clip-rule="evenodd"><path d="M10.468.472 9.372 2.074l1.848.765.357-1.908zM4.422 15.069l1.109.46 1.097-1.603-1.848-.766z"/></g></svg>